<svg xmlns="http://www.w3.org/2000/svg" viewBox="0 0 960 540" role="img" aria-label="MCPApp shell layering">
  <rect width="960" height="540" rx="32" fill="#08090a"/>
  <g font-family="Arial, sans-serif">
    <text x="480" y="52" text-anchor="middle" fill="#f5f5f5" font-size="28" font-weight="700">One MCP App view</text>
    <text x="480" y="82" text-anchor="middle" fill="#a1a1aa" font-size="16">host adapters provide MCP Apps behavior for each environment</text>

    <rect x="54" y="124" width="270" height="336" rx="18" fill="#111113" stroke="#3f3f46"/>
    <text x="189" y="158" text-anchor="middle" fill="#f4f4f5" font-size="20" font-weight="700">Native MCP Host</text>
    <text x="189" y="181" text-anchor="middle" fill="#a1a1aa" font-size="14">ChatGPT · Codex · Claude</text>
    <rect x="82" y="216" width="214" height="50" rx="10" fill="#18181b" stroke="#52525b"/>
    <text x="189" y="247" text-anchor="middle" fill="#f4f4f5" font-size="16" font-weight="700">ui:// HTML resource</text>
    <rect x="102" y="286" width="174" height="48" rx="10" fill="#0f172a" stroke="#2563eb"/>
    <text x="189" y="316" text-anchor="middle" fill="#dbeafe" font-size="16" font-weight="700">MCPApp</text>
    <rect x="122" y="354" width="134" height="42" rx="9" fill="#13251c" stroke="#16a34a"/>
    <text x="189" y="380" text-anchor="middle" fill="#dcfce7" font-size="14" font-weight="700">registry + state</text>
    <rect x="142" y="414" width="94" height="34" rx="8" fill="#27160f" stroke="#ea580c"/>
    <text x="189" y="436" text-anchor="middle" fill="#ffedd5" font-size="14" font-weight="700">json-render</text>

    <rect x="346" y="124" width="270" height="336" rx="18" fill="#111113" stroke="#3f3f46"/>
    <text x="481" y="158" text-anchor="middle" fill="#f4f4f5" font-size="20" font-weight="700">Web Browser</text>
    <text x="481" y="181" text-anchor="middle" fill="#a1a1aa" font-size="14">browser host adapter</text>
    <rect x="374" y="204" width="214" height="46" rx="10" fill="#18181b" stroke="#52525b"/>
    <text x="481" y="233" text-anchor="middle" fill="#f4f4f5" font-size="16" font-weight="700">WebHost</text>
    <rect x="394" y="268" width="174" height="42" rx="9" fill="#202027" stroke="#71717a"/>
    <text x="481" y="294" text-anchor="middle" fill="#e4e4e7" font-size="14" font-weight="700">AppBridge / AppRenderer</text>
    <rect x="414" y="328" width="134" height="38" rx="8" fill="#0f172a" stroke="#2563eb"/>
    <text x="481" y="352" text-anchor="middle" fill="#dbeafe" font-size="14" font-weight="700">same MCPApp</text>
    <rect x="434" y="386" width="94" height="34" rx="8" fill="#27160f" stroke="#ea580c"/>
    <text x="481" y="408" text-anchor="middle" fill="#ffedd5" font-size="14" font-weight="700">json-render</text>

    <rect x="638" y="124" width="270" height="336" rx="18" fill="#111113" stroke="#3f3f46"/>
    <text x="773" y="158" text-anchor="middle" fill="#f4f4f5" font-size="20" font-weight="700">Terminal</text>
    <text x="773" y="181" text-anchor="middle" fill="#a1a1aa" font-size="14">future adapter</text>
    <rect x="666" y="216" width="214" height="50" rx="10" fill="#18181b" stroke="#52525b"/>
    <text x="773" y="247" text-anchor="middle" fill="#f4f4f5" font-size="16" font-weight="700">CliHost</text>
    <rect x="686" y="286" width="174" height="48" rx="10" fill="#202027" stroke="#71717a"/>
    <text x="773" y="316" text-anchor="middle" fill="#e4e4e7" font-size="15" font-weight="700">tool/result loop</text>
    <rect x="706" y="354" width="134" height="42" rx="9" fill="#13251c" stroke="#16a34a"/>
    <text x="773" y="380" text-anchor="middle" fill="#dcfce7" font-size="14" font-weight="700">Ink provider</text>
    <rect x="726" y="414" width="94" height="34" rx="8" fill="#27160f" stroke="#ea580c"/>
    <text x="773" y="436" text-anchor="middle" fill="#ffedd5" font-size="14" font-weight="700">Ink render</text>
  </g>
</svg>
